<?xml version="1.0" encoding="utf-8"?>
<svg version="1.1" xmlns:xlink="http://www.w3.org/1999/xlink" width="205px" height="27px" xmlns="http://www.w3.org/2000/svg">
  <defs>
    <mask fill="white" id="clip1">
      <path d="M 0 22  L 0 5  C 0 2.2  2.34895833333332 0  5.33854166666667 0  C 5.33854166666667 0  129.192708333333 0  191.119791666667 0  C 193.967013888889 0  199.661458333333 0  199.661458333333 0  C 202.651041666667 0  205 2.2  205 5  L 205 22  C 205 24.8  202.651041666667 27  199.661458333333 27  L 5.33854166666667 27  C 2.34895833333332 27  0 24.8  0 22  Z " fill-rule="evenodd" />
    </mask>
  </defs>
  <g transform="matrix(1 0 0 1 -410 -89 )">
    <path d="M 0 22  L 0 5  C 0 2.2  2.34895833333332 0  5.33854166666667 0  C 5.33854166666667 0  129.192708333333 0  191.119791666667 0  C 193.967013888889 0  199.661458333333 0  199.661458333333 0  C 202.651041666667 0  205 2.2  205 5  L 205 22  C 205 24.8  202.651041666667 27  199.661458333333 27  L 5.33854166666667 27  C 2.34895833333332 27  0 24.8  0 22  Z " fill-rule="nonzero" fill="#ffffff" stroke="none" transform="matrix(1 0 0 1 410 89 )" />
    <path d="M 0 22  L 0 5  C 0 2.2  2.34895833333332 0  5.33854166666667 0  C 5.33854166666667 0  129.192708333333 0  191.119791666667 0  C 193.967013888889 0  199.661458333333 0  199.661458333333 0  C 202.651041666667 0  205 2.2  205 5  L 205 22  C 205 24.8  202.651041666667 27  199.661458333333 27  L 5.33854166666667 27  C 2.34895833333332 27  0 24.8  0 22  Z " stroke-width="2" stroke="#797979" fill="none" transform="matrix(1 0 0 1 410 89 )" mask="url(#clip1)" />
  </g>
</svg>