<?xml version="1.0" encoding="utf-8"?>
<svg version="1.1" xmlns:xlink="http://www.w3.org/1999/xlink" width="101px" height="104px" xmlns="http://www.w3.org/2000/svg">
  <g transform="matrix(1 0 0 1 -104 -33 )">
    <path d="M 154.5 33  C 182.78 33  205 55.88  205 85  C 205 114.12  182.78 137  154.5 137  C 126.22 137  104 114.12  104 85  C 104 55.88  126.22 33  154.5 33  Z " fill-rule="nonzero" fill="#4fa800" stroke="none" />
    <path d="M 154.5 33.5  C 182.5 33.5  204.5 56.16  204.5 85  C 204.5 113.84  182.5 136.5  154.5 136.5  C 126.5 136.5  104.5 113.84  104.5 85  C 104.5 56.16  126.5 33.5  154.5 33.5  Z " stroke-width="1" stroke="#797979" fill="none" />
  </g>
</svg>