<?xml version="1.0" encoding="utf-8"?>
<svg version="1.1" xmlns:xlink="http://www.w3.org/1999/xlink" width="104px" height="104px" xmlns="http://www.w3.org/2000/svg">
  <g transform="matrix(1 0 0 1 0 -33 )">
    <path d="M 52 33  C 81.12 33  104 55.88  104 85  C 104 114.12  81.12 137  52 137  C 22.88 137  0 114.12  0 85  C 0 55.88  22.88 33  52 33  Z " fill-rule="nonzero" fill="#006747" stroke="none" />
    <path d="M 52 33.5  C 80.84 33.5  103.5 56.16  103.5 85  C 103.5 113.84  80.84 136.5  52 136.5  C 23.16 136.5  0.5 113.84  0.5 85  C 0.5 56.16  23.16 33.5  52 33.5  Z " stroke-width="1" stroke="#797979" fill="none" />
  </g>
</svg>