<?xml version="1.0" encoding="utf-8"?>
<svg version="1.1" xmlns:xlink="http://www.w3.org/1999/xlink" width="101px" height="104px" xmlns="http://www.w3.org/2000/svg">
  <g transform="matrix(1 0 0 1 -1057 -93 )">
    <path d="M 1107.5 93  C 1135.78 93  1158 115.88  1158 145  C 1158 174.12  1135.78 197  1107.5 197  C 1079.22 197  1057 174.12  1057 145  C 1057 115.88  1079.22 93  1107.5 93  Z " fill-rule="nonzero" fill="#4fa800" stroke="none" />
    <path d="M 1107.5 93.5  C 1135.5 93.5  1157.5 116.16  1157.5 145  C 1157.5 173.84  1135.5 196.5  1107.5 196.5  C 1079.5 196.5  1057.5 173.84  1057.5 145  C 1057.5 116.16  1079.5 93.5  1107.5 93.5  Z " stroke-width="1" stroke="#797979" fill="none" />
  </g>
</svg>