<?xml version="1.0" encoding="utf-8"?>
<svg version="1.1" xmlns:xlink="http://www.w3.org/1999/xlink" width="353px" height="341px" xmlns="http://www.w3.org/2000/svg">
  <g transform="matrix(1 0 0 1 96 78 )">
    <path d="M 80.5 -78  C 179.34 -78  257 -2.98  257 92.5  C 257 187.98  179.34 263  80.5 263  C -18.34 263  -96 187.98  -96 92.5  C -96 -2.98  -18.34 -78  80.5 -78  Z " fill-rule="nonzero" fill="#006747" stroke="none" />
    <path d="M 80.5 -77.5  C 179.06 -77.5  256.5 -2.7  256.5 92.5  C 256.5 187.7  179.06 262.5  80.5 262.5  C -18.06 262.5  -95.5 187.7  -95.5 92.5  C -95.5 -2.7  -18.06 -77.5  80.5 -77.5  Z " stroke-width="1" stroke="#797979" fill="none" />
  </g>
</svg>